<?xml version="1.0" encoding="UTF-8"?>
<!DOCTYPE svg PUBLIC "-//W3C//DTD SVG 1.1//EN" "http://www.w3.org/Graphics/SVG/1.1/DTD/svg11.dtd">
<svg xmlns="http://www.w3.org/2000/svg" version="1.1" width="148px" height="56px" style="shape-rendering:geometricPrecision; text-rendering:geometricPrecision; image-rendering:optimizeQuality; fill-rule:evenodd; clip-rule:evenodd" xmlns:xlink="http://www.w3.org/1999/xlink">
<g><path style="opacity:0.84" fill="#fcf4f4" d="M 3.5,28.5 C 5.16667,28.5 6.83333,28.5 8.5,28.5C 8.66609,34.1764 8.49942,39.8431 8,45.5C 5.78151,47.6187 3.28151,47.952 0.5,46.5C 0.833333,45.5 1.5,44.8333 2.5,44.5C 3.49485,39.2079 3.82818,33.8746 3.5,28.5 Z"/></g>
<g><path style="opacity:0.84" fill="#fcf4f4" d="M 24.5,28.5 C 26.1667,28.5 27.8333,28.5 29.5,28.5C 29.6661,34.1764 29.4994,39.8431 29,45.5C 26.7815,47.6187 24.2815,47.952 21.5,46.5C 21.8333,45.5 22.5,44.8333 23.5,44.5C 24.4948,39.2079 24.8282,33.8746 24.5,28.5 Z"/></g>
<g><path style="opacity:0.881" fill="#fcf5f5" d="M 53.5,28.5 C 57.1817,28.3347 60.8484,28.5014 64.5,29C 65.8045,29.804 66.4712,30.9707 66.5,32.5C 66.4373,35.9988 66.104,39.4988 65.5,43C 61.5138,43.4988 57.5138,43.6655 53.5,43.5C 53.5,38.5 53.5,33.5 53.5,28.5 Z M 58.5,30.5 C 62.0937,31.5615 62.2604,32.8948 59,34.5C 58.51,33.2068 58.3433,31.8734 58.5,30.5 Z M 58.5,36.5 C 63.0165,37.6253 63.3498,39.292 59.5,41.5C 58.5481,39.9547 58.2148,38.288 58.5,36.5 Z"/></g>
<g><path style="opacity:0.796" fill="#fcf5f5" d="M 12.5,32.5 C 21.9905,31.1377 24.6572,34.6377 20.5,43C 10.5544,44.5596 7.8877,41.0596 12.5,32.5 Z M 15.5,35.5 C 18.9563,36.5362 19.2896,38.2029 16.5,40.5C 14.2957,39.218 13.9624,37.5514 15.5,35.5 Z"/></g>
<g><path style="opacity:0.796" fill="#fcf5f5" d="M 33.5,32.5 C 42.9905,31.1377 45.6572,34.6377 41.5,43C 31.5544,44.5596 28.8877,41.0596 33.5,32.5 Z M 36.5,35.5 C 39.9563,36.5362 40.2896,38.2029 37.5,40.5C 35.2957,39.218 34.9624,37.5514 36.5,35.5 Z"/></g>
<g><path style="opacity:0.807" fill="#fbf4f4" d="M 68.5,32.5 C 71.5719,32.1826 74.5719,32.5159 77.5,33.5C 74.0651,35.837 72.7318,39.1703 73.5,43.5C 71.8333,43.5 70.1667,43.5 68.5,43.5C 68.5,39.8333 68.5,36.1667 68.5,32.5 Z"/></g>
<g><path style="opacity:0.796" fill="#fcf5f5" d="M 80.5,32.5 C 89.9905,31.1377 92.6572,34.6377 88.5,43C 78.5544,44.5596 75.8877,41.0596 80.5,32.5 Z M 83.5,35.5 C 86.9563,36.5362 87.2896,38.2029 84.5,40.5C 82.2957,39.218 81.9624,37.5514 83.5,35.5 Z"/></g>
<g><path style="opacity:0.836" fill="#fcf5f5" d="M 91.5,33.5 C 92.9187,32.5489 94.5853,32.2155 96.5,32.5C 97.1667,36.5 97.8333,36.5 98.5,32.5C 102.375,31.8742 104.209,33.5408 104,37.5C 103.791,33.5408 105.625,31.8742 109.5,32.5C 108.674,36.1359 108.008,39.8026 107.5,43.5C 105.5,43.5 103.5,43.5 101.5,43.5C 101.674,38.9786 101.007,38.6452 99.5,42.5C 97.8333,43.8333 96.1667,43.8333 94.5,42.5C 93.635,39.3381 92.635,36.3381 91.5,33.5 Z"/></g>
<g><path style="opacity:0.771" fill="#fcf5f5" d="M 111.5,32.5 C 114.5,32.5 117.5,32.5 120.5,32.5C 120.5,33.5 120.5,34.5 120.5,35.5C 114.147,35.4526 113.98,36.1192 120,37.5C 120.743,39.4406 120.576,41.2739 119.5,43C 116.518,43.498 113.518,43.6646 110.5,43.5C 110.5,42.5 110.5,41.5 110.5,40.5C 116.853,40.5474 117.02,39.8808 111,38.5C 110.322,36.4024 110.489,34.4024 111.5,32.5 Z"/></g>
<g><path style="opacity:0.826" fill="#fcf5f5" d="M 124.5,32.5 C 127.187,32.3359 129.854,32.5026 132.5,33C 134.155,34.4443 134.822,36.2776 134.5,38.5C 124.096,38.4488 124.096,39.4488 134.5,41.5C 134.291,42.086 133.957,42.586 133.5,43C 130.5,43.6667 127.5,43.6667 124.5,43C 120.605,39.5106 120.605,36.0106 124.5,32.5 Z"/></g>
<g><path style="opacity:0.807" fill="#fbf4f4" d="M 136.5,32.5 C 139.572,32.1826 142.572,32.5159 145.5,33.5C 142.065,35.837 140.732,39.1703 141.5,43.5C 139.833,43.5 138.167,43.5 136.5,43.5C 136.5,39.8333 136.5,36.1667 136.5,32.5 Z"/></g>
<g><path style="opacity:0.878" fill="#fbf5f5" d="M 45.5,36.5 C 47.8333,36.5 50.1667,36.5 52.5,36.5C 52.5,37.5 52.5,38.5 52.5,39.5C 50.1667,39.5 47.8333,39.5 45.5,39.5C 45.5,38.5 45.5,37.5 45.5,36.5 Z"/></g>
</svg>
