<?xml version="1.0" encoding="UTF-8"?>
<!DOCTYPE svg PUBLIC "-//W3C//DTD SVG 1.1//EN" "http://www.w3.org/Graphics/SVG/1.1/DTD/svg11.dtd">
<svg xmlns="http://www.w3.org/2000/svg" version="1.1" width="192px" height="192px" style="shape-rendering:geometricPrecision; text-rendering:geometricPrecision; image-rendering:optimizeQuality; fill-rule:evenodd; clip-rule:evenodd" xmlns:xlink="http://www.w3.org/1999/xlink">
<g><path style="opacity:0.106" fill="#a6a6a6" d="M 46.5,9.5 C 46.5,10.1667 46.1667,10.5 45.5,10.5C 33.6547,10.1717 21.988,10.5051 10.5,11.5C 10.1667,11.5 9.83333,11.5 9.5,11.5C 21.4547,9.52026 33.788,8.8536 46.5,9.5 Z"/></g>
<g><path style="opacity:0.985" fill="#ede4e4" d="M 80.5,-0.5 C 90.5,-0.5 100.5,-0.5 110.5,-0.5C 120.095,1.53243 129.429,4.69909 138.5,9C 152.829,9.49991 167.163,9.66658 181.5,9.5C 181.333,23.504 181.5,37.504 182,51.5C 186.106,60.9831 189.273,70.6497 191.5,80.5C 191.5,88.1667 191.5,95.8333 191.5,103.5C 190.883,103.611 190.383,103.944 190,104.5C 188.839,110.8 188.006,117.134 187.5,123.5C 187.405,125.786 186.738,127.786 185.5,129.5C 182.823,132.191 181.49,135.525 181.5,139.5C 181.833,153.183 181.499,166.85 180.5,180.5C 179.833,168.34 179.167,156.34 178.5,144.5C 177.094,144.973 176.427,145.973 176.5,147.5C 176.573,149.027 175.906,150.027 174.5,150.5C 173.094,150.973 172.427,151.973 172.5,153.5C 170.413,154.585 169.08,156.251 168.5,158.5C 163.474,163.195 158.474,167.861 153.5,172.5C 151.973,172.427 150.973,173.094 150.5,174.5C 148.973,174.427 147.973,175.094 147.5,176.5C 145.973,176.427 144.973,177.094 144.5,178.5C 141.485,180.674 138.151,182.341 134.5,183.5C 131.458,183.733 128.792,184.733 126.5,186.5C 123.146,188.258 119.479,189.258 115.5,189.5C 104.185,190.523 92.8522,190.69 81.5,190C 73.7715,188.318 66.1048,186.484 58.5,184.5C 39.6989,179.184 23.8656,169.184 11,154.5C 10.6667,163.167 10.3333,171.833 10,180.5C 9.66667,171.167 9.33333,161.833 9,152.5C 5.57908,147.929 2.41241,143.263 -0.5,138.5C -0.5,137.5 -0.5,136.5 -0.5,135.5C 2.89112,139.928 6.05779,144.594 9,149.5C 9.49834,146.183 9.66501,142.85 9.5,139.5C 5.97289,129.745 3.13956,119.745 1,109.5C 0.500198,99.8391 0.333531,90.1724 0.5,80.5C 0.740247,75.8799 1.74025,71.5465 3.5,67.5C 5.98966,64.3743 7.323,60.7076 7.5,56.5C 8.93127,55.2196 9.59794,53.5529 9.5,51.5C 9.66501,48.1501 9.49834,44.8168 9,41.5C 5.9701,46.0155 2.80344,50.3488 -0.5,54.5C -0.5,53.8333 -0.5,53.1667 -0.5,52.5C 2.41241,47.7374 5.57908,43.0707 9,38.5C 9.49977,29.5062 9.66644,20.5062 9.5,11.5C 9.83333,11.5 10.1667,11.5 10.5,11.5C 10.3336,19.84 10.5003,28.1733 11,36.5C 20.4665,25.0293 31.9665,16.3626 45.5,10.5C 46.1667,10.5 46.5,10.1667 46.5,9.5C 57.8561,5.93355 69.1895,2.60021 80.5,-0.5 Z M 142.5,11.5 C 154.655,10.5048 166.989,10.1714 179.5,10.5C 179.667,22.5046 179.5,34.5046 179,46.5C 170.571,30.9036 158.404,19.2369 142.5,11.5 Z M 38.5,16.5 C 38.1667,17.1667 37.8333,17.8333 37.5,18.5C 35.2512,19.0798 33.5846,20.4131 32.5,22.5C 29.1667,23.8333 26.8333,26.1667 25.5,29.5C 23.1667,29.8333 21.8333,31.1667 21.5,33.5C 19.7376,34.2623 18.7376,35.5956 18.5,37.5C 16.1782,38.8021 14.8449,40.8021 14.5,43.5C 12.7497,44.6594 11.7497,46.326 11.5,48.5C 10.3592,45.3601 10.1925,42.0267 11,38.5C 18.5689,29.0902 27.7356,21.7569 38.5,16.5 Z M 10.5,142.5 C 17.3561,153.693 25.6895,163.693 35.5,172.5C 26.4029,167.92 18.5696,161.587 12,153.5C 10.6632,149.974 10.1632,146.308 10.5,142.5 Z"/></g>
<g><path style="opacity:1" fill="#e6a73b" d="M 116.5,7.5 C 120.479,7.74241 124.146,8.74241 127.5,10.5C 125.833,10.5 124.167,10.5 122.5,10.5C 119.833,10.5 117.167,10.5 114.5,10.5C 111.833,10.5 109.167,10.5 106.5,10.5C 103.5,10.5 100.5,10.5 97.5,10.5C 97.5,10.1667 97.5,9.83333 97.5,9.5C 103.998,9.91848 110.332,9.25181 116.5,7.5 Z"/></g>
<g><path style="opacity:1" fill="#d85138" d="M 67.5,8.5 C 76.9856,9.4938 86.6522,9.82713 96.5,9.5C 96.8333,9.5 97.1667,9.5 97.5,9.5C 97.5,9.83333 97.5,10.1667 97.5,10.5C 97.1667,10.5 96.8333,10.5 96.5,10.5C 92.8333,10.5 89.1667,10.5 85.5,10.5C 78.1667,10.5 70.8333,10.5 63.5,10.5C 64.6715,9.65536 66.0048,8.98869 67.5,8.5 Z"/></g>
<g><path style="opacity:1" fill="#ff4908" d="M 103.5,4.5 C 100.991,5.92126 98.6572,7.58793 96.5,9.5C 86.6522,9.82713 76.9856,9.4938 67.5,8.5C 79.2084,4.98702 91.2084,3.65368 103.5,4.5 Z"/></g>
<g><path style="opacity:1" fill="#ff8702" d="M 103.5,4.5 C 107.983,5.22839 112.316,6.22839 116.5,7.5C 110.332,9.25181 103.998,9.91848 97.5,9.5C 97.1667,9.5 96.8333,9.5 96.5,9.5C 98.6572,7.58793 100.991,5.92126 103.5,4.5 Z"/></g>
<g><path style="opacity:1" fill="#ffd500" d="M 114.5,10.5 C 117.167,10.5 119.833,10.5 122.5,10.5C 113.819,14.7002 105.153,19.2002 96.5,24C 93.348,24.3949 90.348,25.2282 87.5,26.5C 86.6618,26.1583 86.3284,25.4916 86.5,24.5C 91.4613,21.5227 96.7947,19.356 102.5,18C 106.25,14.925 110.25,12.425 114.5,10.5 Z"/></g>
<g><path style="opacity:1" fill="#fef105" d="M 122.5,10.5 C 124.167,10.5 125.833,10.5 127.5,10.5C 129.153,10.6596 130.486,11.3263 131.5,12.5C 120.083,17.0392 108.75,21.8726 97.5,27C 95.4156,27.6972 93.7489,28.8639 92.5,30.5C 91.1072,28.1168 89.4405,26.7835 87.5,26.5C 90.348,25.2282 93.348,24.3949 96.5,24C 105.153,19.2002 113.819,14.7002 122.5,10.5 Z"/></g>
<g><path style="opacity:1" fill="#f1e9e9" d="M 71.5,15.5 C 73.2048,17.1921 75.2048,18.5254 77.5,19.5C 78.9937,22.734 80.827,23.0673 83,20.5C 83.3826,21.056 83.8826,21.3893 84.5,21.5C 84.427,23.0269 85.0937,24.0269 86.5,24.5C 86.3284,25.4916 86.6618,26.1583 87.5,26.5C 89.4405,26.7835 91.1072,28.1168 92.5,30.5C 92.0077,34.2896 92.841,34.9563 95,32.5C 95.3333,33.5 95.6667,34.5 96,35.5C 97.1719,32.2967 99.3386,30.7967 102.5,31C 98.8361,34.4123 99.0028,35.579 103,34.5C 103.422,31.7644 103.422,29.0977 103,26.5C 103.852,27.5707 104.685,28.5707 105.5,29.5C 105.5,31.1667 105.5,32.8333 105.5,34.5C 104.859,35.4822 104.193,36.4822 103.5,37.5C 105.766,38.3142 108.1,38.8142 110.5,39C 111.212,40.425 111.379,41.925 111,43.5C 112.667,44.8333 114.333,44.8333 116,43.5C 115.892,39.8432 115.892,36.1765 116,32.5C 116.333,32.1667 116.667,31.8333 117,31.5C 117.191,33.7078 117.691,35.7078 118.5,37.5C 120.048,40.2585 119.715,42.7585 117.5,45C 119.686,46.309 121.853,46.4757 124,45.5C 124.483,46.448 124.649,47.448 124.5,48.5C 126.512,47.9862 128.512,47.8195 130.5,48C 130.957,48.414 131.291,48.914 131.5,49.5C 130.311,50.4287 128.978,50.762 127.5,50.5C 125.915,51.0024 125.415,52.0024 126,53.5C 127.965,52.115 129.798,52.2816 131.5,54C 130.5,54.3333 129.5,54.6667 128.5,55C 130.635,55.8763 131.969,57.3763 132.5,59.5C 130.983,59.4894 129.816,58.8228 129,57.5C 121.923,57.8813 121.756,60.0479 128.5,64C 131.871,64.7437 135.037,64.2437 138,62.5C 137.904,60.6194 138.071,58.9527 138.5,57.5C 139.167,58.5 139.833,59.5 140.5,60.5C 140.5,61.5 140.5,62.5 140.5,63.5C 138.243,65.9233 135.576,67.7567 132.5,69C 134.116,69.6152 135.449,70.6152 136.5,72C 139.383,72.7954 140.883,71.6287 141,68.5C 143.416,72.0365 144.916,71.3699 145.5,66.5C 146.167,66.5 146.5,66.8333 146.5,67.5C 146.5,68.8333 146.5,70.1667 146.5,71.5C 148.514,71.3915 150.18,72.0582 151.5,73.5C 149.631,74.1646 147.631,74.8313 145.5,75.5C 145.833,76.1667 146.167,76.8333 146.5,77.5C 145.167,78.6199 144.667,79.9532 145,81.5C 146.33,80.4178 147.83,79.7512 149.5,79.5C 149.5,81.5 149.5,83.5 149.5,85.5C 148.147,87.1284 148.481,88.4617 150.5,89.5C 152.199,89.3398 153.866,89.5065 155.5,90C 155.463,91.949 155.963,93.7824 157,95.5C 159.524,93.6059 160.19,91.2726 159,88.5C 160.039,89.7101 161.206,90.7101 162.5,91.5C 163.606,94.054 164.439,96.7206 165,99.5C 165.374,97.102 165.374,94.7687 165,92.5C 166.667,93.5 168,94.8333 169,96.5C 169.617,95.5509 169.451,94.7175 168.5,94C 172.263,94.9349 174.596,97.4349 175.5,101.5C 175.34,103.199 175.506,104.866 176,106.5C 177.368,104.185 178.201,104.185 178.5,106.5C 177.954,108.135 177.62,109.801 177.5,111.5C 175.95,113.3 174.95,115.467 174.5,118C 177.507,121.11 176.84,122.11 172.5,121C 171.044,118.734 170.21,116.234 170,113.5C 167.79,119.032 168.956,123.698 173.5,127.5C 171.427,129.988 169.093,129.988 166.5,127.5C 167.225,129.608 167.225,131.942 166.5,134.5C 165.019,133.52 163.685,132.353 162.5,131C 161.833,130.333 161.167,130.333 160.5,131C 161.71,132.039 162.71,133.206 163.5,134.5C 162.763,139.954 160.596,140.621 157,136.5C 155.148,139.347 155.648,141.847 158.5,144C 155.82,144.335 153.487,143.501 151.5,141.5C 150.914,141.709 150.414,142.043 150,142.5C 149.503,145.146 149.336,147.813 149.5,150.5C 146.642,150.972 144.642,149.972 143.5,147.5C 139.695,146.167 135.861,144.5 132,142.5C 131.13,147.107 132.963,149.774 137.5,150.5C 137.611,151.117 137.944,151.617 138.5,152C 134.628,152.891 130.962,152.391 127.5,150.5C 125.922,154.042 126.588,157.042 129.5,159.5C 127.143,159.337 124.81,159.503 122.5,160C 120.606,161.079 120.273,162.413 121.5,164C 124.462,164.301 127.128,164.468 129.5,164.5C 126.111,167.797 122.111,168.963 117.5,168C 116.594,169.699 116.261,171.533 116.5,173.5C 116.672,174.492 116.338,175.158 115.5,175.5C 114.833,174.5 114.167,173.5 113.5,172.5C 113.265,171.903 112.765,171.57 112,171.5C 106.821,174.397 101.987,174.063 97.5,170.5C 96.5178,169.859 95.5178,169.193 94.5,168.5C 91.5526,169.781 89.2193,171.781 87.5,174.5C 86.8933,174.376 86.56,174.043 86.5,173.5C 86.8769,171.742 87.5435,170.075 88.5,168.5C 86.8872,167.573 85.2205,166.739 83.5,166C 84.056,165.617 84.3893,165.117 84.5,164.5C 87.5,164.833 88.8333,163.5 88.5,160.5C 84.9746,160.346 82.1413,161.679 80,164.5C 79.6174,163.944 79.1174,163.611 78.5,163.5C 81.2733,160.755 80.94,158.755 77.5,157.5C 78.8664,155.649 80.533,155.316 82.5,156.5C 84.2303,155.974 85.5637,154.974 86.5,153.5C 83.5224,152.647 80.5224,151.981 77.5,151.5C 76.7109,151.217 76.0442,150.717 75.5,150C 77.4727,149.505 79.4727,149.338 81.5,149.5C 81.5,148.5 81.5,147.5 81.5,146.5C 79.7085,146.634 78.0418,146.301 76.5,145.5C 78.8888,144.946 80.5555,143.446 81.5,141C 80.8333,140.833 80.1667,140.667 79.5,140.5C 74.4623,142.701 69.7956,145.534 65.5,149C 63.8988,149.273 62.3988,149.773 61,150.5C 58.4394,149.888 55.6061,149.721 52.5,150C 49.589,152.99 47.589,156.49 46.5,160.5C 45.596,161.209 45.2627,162.209 45.5,163.5C 44.325,163.719 43.325,163.386 42.5,162.5C 41.6258,160.253 41.2924,157.92 41.5,155.5C 41.5,154.5 41.5,153.5 41.5,152.5C 42.866,149.039 43.866,145.373 44.5,141.5C 45.4013,140.71 46.0679,139.71 46.5,138.5C 47.1667,138.5 47.5,138.833 47.5,139.5C 45.1088,145.289 43.9421,151.289 44,157.5C 47.6406,154.219 49.6406,150.219 50,145.5C 48.9196,147.996 47.5862,150.33 46,152.5C 45.8916,148.65 46.7249,144.983 48.5,141.5C 50.3395,136.159 53.0061,131.159 56.5,126.5C 56.0302,125.537 55.3635,125.537 54.5,126.5C 55.087,125.233 55.087,124.233 54.5,123.5C 47.9248,127.211 40.9248,129.544 33.5,130.5C 31.5,130.167 29.5,129.833 27.5,129.5C 26.493,127.478 24.8263,126.145 22.5,125.5C 22.1667,124.5 21.5,123.833 20.5,123.5C 18.8489,121.598 18.5155,119.598 19.5,117.5C 21.1667,115.5 22.8333,113.5 24.5,111.5C 28.8333,107.833 32.8333,103.833 36.5,99.5C 39.2003,97.7656 41.2003,95.4323 42.5,92.5C 44.3047,87.6825 44.8047,82.6825 44,77.5C 45.4813,76.5291 46.3146,75.1958 46.5,73.5C 48.0485,70.2342 49.7152,66.9009 51.5,63.5C 53.969,60.8562 56.3024,58.0228 58.5,55C 57.2068,54.51 55.8734,54.3433 54.5,54.5C 54.1667,53.5 53.5,52.8333 52.5,52.5C 52.238,51.0222 52.5713,49.6888 53.5,48.5C 54.3857,49.325 54.719,50.325 54.5,51.5C 55.5,51.5 56.5,51.5 57.5,51.5C 57.7678,49.901 57.4345,48.5676 56.5,47.5C 56.3404,45.847 55.6737,44.5137 54.5,43.5C 54.5,42.8333 54.5,42.1667 54.5,41.5C 53.3995,40.3951 52.7329,39.0618 52.5,37.5C 52.1667,36.5 51.5,35.8333 50.5,35.5C 49.9213,32.6689 48.588,30.3356 46.5,28.5C 45.2504,25.994 44.5838,23.3274 44.5,20.5C 47.1667,20.5 49.8333,20.5 52.5,20.5C 53.7294,23.4561 55.7294,24.4561 58.5,23.5C 59.3184,25.1083 59.9851,26.7749 60.5,28.5C 63.7782,30.1515 64.7782,29.4848 63.5,26.5C 63.3932,24.6214 63.8932,24.2881 65,25.5C 66.6667,28.8333 68.3333,32.1667 70,35.5C 70.1667,35 70.3333,34.5 70.5,34C 67.8102,29.0969 65.8102,23.9302 64.5,18.5C 63.7189,19.7287 63.2189,21.062 63,22.5C 62.5045,20.5273 62.3379,18.5273 62.5,16.5C 65.0038,11.665 68.0038,11.3317 71.5,15.5 Z"/></g>
<g><path style="opacity:1" fill="#fe7302" d="M 85.5,10.5 C 89.1667,10.5 92.8333,10.5 96.5,10.5C 92.6903,13.2162 88.3569,14.8829 83.5,15.5C 82.5036,18.3319 80.5036,19.6653 77.5,19.5C 75.2048,18.5254 73.2048,17.1921 71.5,15.5C 77.1677,16.2612 81.8343,14.5946 85.5,10.5 Z"/></g>
<g><path style="opacity:1" fill="#fe9503" d="M 96.5,10.5 C 96.8333,10.5 97.1667,10.5 97.5,10.5C 100.5,10.5 103.5,10.5 106.5,10.5C 102.723,12.2901 98.7233,13.7901 94.5,15C 90.9311,16.9417 87.5978,19.1084 84.5,21.5C 83.8826,21.3893 83.3826,21.056 83,20.5C 80.827,23.0673 78.9937,22.734 77.5,19.5C 80.5036,19.6653 82.5036,18.3319 83.5,15.5C 88.3569,14.8829 92.6903,13.2162 96.5,10.5 Z"/></g>
<g><path style="opacity:1" fill="#fd6117" d="M 61.5,18.5 C 61.1107,21.5533 61.7773,24.22 63.5,26.5C 64.7782,29.4848 63.7782,30.1515 60.5,28.5C 59.9851,26.7749 59.3184,25.1083 58.5,23.5C 55.7294,24.4561 53.7294,23.4561 52.5,20.5C 55.5739,20.1274 58.5739,19.4608 61.5,18.5 Z"/></g>
<g><path style="opacity:1" fill="#ffb802" d="M 106.5,10.5 C 109.167,10.5 111.833,10.5 114.5,10.5C 110.25,12.425 106.25,14.925 102.5,18C 96.7947,19.356 91.4613,21.5227 86.5,24.5C 85.0937,24.0269 84.427,23.0269 84.5,21.5C 87.5978,19.1084 90.9311,16.9417 94.5,15C 98.7233,13.7901 102.723,12.2901 106.5,10.5 Z"/></g>
<g><path style="opacity:0.051" fill="#5a5757" d="M 37.5,18.5 C 36.4154,20.5869 34.7488,21.9202 32.5,22.5C 33.5846,20.4131 35.2512,19.0798 37.5,18.5 Z"/></g>
<g><path style="opacity:0.005" fill="#000000" d="M 32.5,22.5 C 30.5,25.1667 28.1667,27.5 25.5,29.5C 26.8333,26.1667 29.1667,23.8333 32.5,22.5 Z"/></g>
<g><path style="opacity:1" fill="#ae9896" d="M 62.5,16.5 C 62.3379,18.5273 62.5045,20.5273 63,22.5C 63.2189,21.062 63.7189,19.7287 64.5,18.5C 65.8102,23.9302 67.8102,29.0969 70.5,34C 70.3333,34.5 70.1667,35 70,35.5C 68.3333,32.1667 66.6667,28.8333 65,25.5C 63.8932,24.2881 63.3932,24.6214 63.5,26.5C 61.7773,24.22 61.1107,21.5533 61.5,18.5C 61.3284,17.5084 61.6618,16.8417 62.5,16.5 Z"/></g>
<g><path style="opacity:1" fill="#3e3b3b" d="M 78.5,35.5 C 74.9376,31.6997 72.4376,27.3664 71,22.5C 74.1546,26.4802 76.6546,30.8136 78.5,35.5 Z"/></g>
<g><path style="opacity:1" fill="#c6fe0a" d="M 132.5,12.5 C 136.655,13.7417 140.322,15.7417 143.5,18.5C 138.663,17.9435 134.663,19.4435 131.5,23C 125.395,24.4903 120.062,27.157 115.5,31C 111.875,31.5657 108.542,32.7323 105.5,34.5C 105.5,32.8333 105.5,31.1667 105.5,29.5C 110.795,25.1791 116.795,21.8457 123.5,19.5C 126.552,17.1 129.552,14.7666 132.5,12.5 Z"/></g>
<g><path style="opacity:1" fill="#e6fd12" d="M 131.5,12.5 C 131.833,12.5 132.167,12.5 132.5,12.5C 129.552,14.7666 126.552,17.1 123.5,19.5C 116.795,21.8457 110.795,25.1791 105.5,29.5C 104.685,28.5707 103.852,27.5707 103,26.5C 103.422,29.0977 103.422,31.7644 103,34.5C 99.0028,35.579 98.8361,34.4123 102.5,31C 99.3386,30.7967 97.1719,32.2967 96,35.5C 95.6667,34.5 95.3333,33.5 95,32.5C 92.841,34.9563 92.0077,34.2896 92.5,30.5C 93.7489,28.8639 95.4156,27.6972 97.5,27C 108.75,21.8726 120.083,17.0392 131.5,12.5 Z"/></g>
<g><path style="opacity:1" fill="#fe430b" d="M 63.5,10.5 C 70.8333,10.5 78.1667,10.5 85.5,10.5C 81.8343,14.5946 77.1677,16.2612 71.5,15.5C 68.0038,11.3317 65.0038,11.665 62.5,16.5C 61.6618,16.8417 61.3284,17.5084 61.5,18.5C 58.5739,19.4608 55.5739,20.1274 52.5,20.5C 49.8333,20.5 47.1667,20.5 44.5,20.5C 44.5838,23.3274 45.2504,25.994 46.5,28.5C 38.8588,32.0121 31.1921,35.6788 23.5,39.5C 33.964,25.9292 47.2974,16.2625 63.5,10.5 Z"/></g>
<g><path style="opacity:0.005" fill="#000000" d="M 25.5,29.5 C 24.5,31.1667 23.1667,32.5 21.5,33.5C 21.8333,31.1667 23.1667,29.8333 25.5,29.5 Z"/></g>
<g><path style="opacity:1" fill="#28fe0d" d="M 150.5,23.5 C 155.126,26.4578 159.126,30.1245 162.5,34.5C 161.718,36.4513 160.384,37.9513 158.5,39C 149.269,41.9513 140.602,45.9513 132.5,51C 130.613,51.7796 128.946,51.6129 127.5,50.5C 128.978,50.762 130.311,50.4287 131.5,49.5C 131.291,48.914 130.957,48.414 130.5,48C 128.512,47.8195 126.512,47.9862 124.5,48.5C 124.649,47.448 124.483,46.448 124,45.5C 121.853,46.4757 119.686,46.309 117.5,45C 119.715,42.7585 120.048,40.2585 118.5,37.5C 119.66,36.735 120.66,35.735 121.5,34.5C 131.243,30.9831 140.91,27.3165 150.5,23.5 Z"/></g>
<g><path style="opacity:1" fill="#80fe0a" d="M 143.5,18.5 C 146.135,19.8109 148.469,21.4776 150.5,23.5C 140.91,27.3165 131.243,30.9831 121.5,34.5C 120.66,35.735 119.66,36.735 118.5,37.5C 117.691,35.7078 117.191,33.7078 117,31.5C 116.667,31.8333 116.333,32.1667 116,32.5C 115.892,36.1765 115.892,39.8432 116,43.5C 114.333,44.8333 112.667,44.8333 111,43.5C 111.379,41.925 111.212,40.425 110.5,39C 108.1,38.8142 105.766,38.3142 103.5,37.5C 104.193,36.4822 104.859,35.4822 105.5,34.5C 108.542,32.7323 111.875,31.5657 115.5,31C 120.062,27.157 125.395,24.4903 131.5,23C 134.663,19.4435 138.663,17.9435 143.5,18.5 Z"/></g>
<g><path style="opacity:0.006" fill="#000000" d="M 21.5,33.5 C 21.2624,35.4044 20.2624,36.7377 18.5,37.5C 18.7376,35.5956 19.7376,34.2623 21.5,33.5 Z"/></g>
<g><path style="opacity:1" fill="#ff8602" d="M 46.5,28.5 C 48.588,30.3356 49.9213,32.6689 50.5,35.5C 48.5183,35.9954 46.5183,36.4954 44.5,37C 34.7676,41.8662 25.1009,46.6996 15.5,51.5C 17.8077,47.205 20.4744,43.205 23.5,39.5C 31.1921,35.6788 38.8588,32.0121 46.5,28.5 Z"/></g>
<g><path style="opacity:1" fill="#ffc302" d="M 52.5,37.5 C 52.7329,39.0618 53.3995,40.3951 54.5,41.5C 50.4346,42.183 46.4346,43.183 42.5,44.5C 34.6224,48.1085 26.9558,52.2752 19.5,57C 16.7206,57.561 14.054,58.3944 11.5,59.5C 12.2632,57.6316 13.2632,55.9649 14.5,54.5C 20.8647,51.3296 27.5313,48.8296 34.5,47C 38.2346,44.5079 41.9013,41.8413 45.5,39C 47.9204,38.7096 50.2537,38.2096 52.5,37.5 Z"/></g>
<g><path style="opacity:0.604" fill="#605e5e" d="M 18.5,37.5 C 18.3671,40.3662 17.0338,42.3662 14.5,43.5C 14.8449,40.8021 16.1782,38.8021 18.5,37.5 Z"/></g>
<g><path style="opacity:1" fill="#464343" d="M 78.5,35.5 C 81.6654,39.1586 82.1654,43.1586 80,47.5C 77.6229,45.1349 76.7895,42.4682 77.5,39.5C 78.3333,41.5 79.1667,43.5 80,45.5C 80.0475,42.1224 79.5475,38.7891 78.5,35.5 Z"/></g>
<g><path style="opacity:1" fill="#15fe7a" d="M 166.5,39.5 C 168.543,40.5794 169.876,42.246 170.5,44.5C 163.144,48.7959 155.477,52.6292 147.5,56C 144.607,57.1488 141.607,57.6488 138.5,57.5C 138.071,58.9527 137.904,60.6194 138,62.5C 135.037,64.2437 131.871,64.7437 128.5,64C 121.756,60.0479 121.923,57.8813 129,57.5C 129.816,58.8228 130.983,59.4894 132.5,59.5C 132.56,60.0431 132.893,60.3764 133.5,60.5C 136.1,56.3732 139.766,54.0399 144.5,53.5C 144.281,52.325 144.614,51.325 145.5,50.5C 153.044,47.5645 160.044,43.8978 166.5,39.5 Z"/></g>
<g><path style="opacity:1" fill="#313030" d="M 91.5,41.5 C 92.782,42.7082 92.782,44.0416 91.5,45.5C 89.5,46.8333 87.5,48.1667 85.5,49.5C 88.2909,51.0816 89.4576,53.4149 89,56.5C 86.6385,49.8849 84.4718,49.8849 82.5,56.5C 82.1667,55.8333 81.8333,55.1667 81.5,54.5C 82.8417,50.6102 83.675,46.6102 84,42.5C 84.49,43.7932 84.6567,45.1266 84.5,46.5C 88.2368,46.7593 90.5702,45.0926 91.5,41.5 Z"/></g>
<g><path style="opacity:0.322" fill="#605d5d" d="M 14.5,43.5 C 14.4077,45.8477 13.4077,47.5144 11.5,48.5C 11.7497,46.326 12.7497,44.6594 14.5,43.5 Z"/></g>
<g><path style="opacity:1" fill="#ffaf00" d="M 50.5,35.5 C 51.5,35.8333 52.1667,36.5 52.5,37.5C 50.2537,38.2096 47.9204,38.7096 45.5,39C 41.9013,41.8413 38.2346,44.5079 34.5,47C 27.5313,48.8296 20.8647,51.3296 14.5,54.5C 14.5569,53.391 14.8902,52.391 15.5,51.5C 25.1009,46.6996 34.7676,41.8662 44.5,37C 46.5183,36.4954 48.5183,35.9954 50.5,35.5 Z"/></g>
<g><path style="opacity:1" fill="#6c6868" d="M 76.5,45.5 C 77.81,47.4346 79.1433,49.4346 80.5,51.5C 79.0446,52.7445 77.7113,52.5778 76.5,51C 77.1383,49.2933 77.1383,47.46 76.5,45.5 Z"/></g>
<g><path style="opacity:1" fill="#434141" d="M 64.5,37.5 C 65.7927,36.3552 66.9593,36.6885 68,38.5C 70.6378,45.9206 68.6378,51.9206 62,56.5C 64.8451,52.9068 67.0117,48.7401 68.5,44C 68.2929,41.0762 66.9596,38.9095 64.5,37.5 Z"/></g>
<g><path style="opacity:1" fill="#ffe003" d="M 54.5,41.5 C 54.5,42.1667 54.5,42.8333 54.5,43.5C 48.854,45.1542 43.5206,47.6542 38.5,51C 29.1421,54.8359 19.8088,58.6693 10.5,62.5C 10.5569,61.391 10.8902,60.391 11.5,59.5C 14.054,58.3944 16.7206,57.561 19.5,57C 26.9558,52.2752 34.6224,48.1085 42.5,44.5C 46.4346,43.183 50.4346,42.183 54.5,41.5 Z"/></g>
<g><path style="opacity:1" fill="#3c3a3a" d="M 100.5,41.5 C 102.655,41.372 104.655,41.872 106.5,43C 103.666,43.0454 101.166,43.8787 99,45.5C 98.9944,47.8088 98.8277,49.9754 98.5,52C 100.158,55.2965 102.825,56.2965 106.5,55C 109.128,53.3745 111.461,51.3745 113.5,49C 115.5,48.3333 117.5,48.3333 119.5,49C 117.833,49.3333 116.167,49.6667 114.5,50C 111.341,54.7432 107.008,57.0765 101.5,57C 99.1998,54.7119 96.5332,53.0452 93.5,52C 94.7262,47.7007 97.0596,44.2007 100.5,41.5 Z"/></g>
<g><path style="opacity:0.005" fill="#000000" d="M 9.5,51.5 C 9.59794,53.5529 8.93127,55.2196 7.5,56.5C 7.40206,54.4471 8.06873,52.7804 9.5,51.5 Z"/></g>
<g><path style="opacity:1" fill="#fef403" d="M 54.5,43.5 C 55.6737,44.5137 56.3404,45.847 56.5,47.5C 54.8008,47.3398 53.1341,47.5065 51.5,48C 37.2138,54.6513 22.8805,61.1513 8.5,67.5C 8.89254,65.7162 9.5592,64.0495 10.5,62.5C 19.8088,58.6693 29.1421,54.8359 38.5,51C 43.5206,47.6542 48.854,45.1542 54.5,43.5 Z"/></g>
<g><path style="opacity:1" fill="#0ffe4d" d="M 162.5,34.5 C 164.587,35.5846 165.92,37.2512 166.5,39.5C 160.044,43.8978 153.044,47.5645 145.5,50.5C 144.614,51.325 144.281,52.325 144.5,53.5C 139.766,54.0399 136.1,56.3732 133.5,60.5C 132.893,60.3764 132.56,60.0431 132.5,59.5C 131.969,57.3763 130.635,55.8763 128.5,55C 129.5,54.6667 130.5,54.3333 131.5,54C 129.798,52.2816 127.965,52.115 126,53.5C 125.415,52.0024 125.915,51.0024 127.5,50.5C 128.946,51.6129 130.613,51.7796 132.5,51C 140.602,45.9513 149.269,41.9513 158.5,39C 160.384,37.9513 161.718,36.4513 162.5,34.5 Z"/></g>
<g><path style="opacity:1" fill="#04fe9c" d="M 170.5,44.5 C 171.338,44.8417 171.672,45.5084 171.5,46.5C 168.051,50.2246 163.718,52.3912 158.5,53C 156.833,54 155.5,55.3333 154.5,57C 149.735,57.8578 145.069,59.0245 140.5,60.5C 139.833,59.5 139.167,58.5 138.5,57.5C 141.607,57.6488 144.607,57.1488 147.5,56C 155.477,52.6292 163.144,48.7959 170.5,44.5 Z"/></g>
<g><path style="opacity:1" fill="#02feb7" d="M 171.5,46.5 C 172.167,46.5 172.5,46.8333 172.5,47.5C 169.774,51.0456 166.107,53.379 161.5,54.5C 155.336,60.0864 148.336,63.0864 140.5,63.5C 140.5,62.5 140.5,61.5 140.5,60.5C 145.069,59.0245 149.735,57.8578 154.5,57C 155.5,55.3333 156.833,54 158.5,53C 163.718,52.3912 168.051,50.2246 171.5,46.5 Z"/></g>
<g><path style="opacity:1" fill="#e1fe08" d="M 56.5,47.5 C 57.4345,48.5676 57.7678,49.901 57.5,51.5C 56.5,51.5 55.5,51.5 54.5,51.5C 54.719,50.325 54.3857,49.325 53.5,48.5C 52.5713,49.6888 52.238,51.0222 52.5,52.5C 41.0156,56.9089 30.0156,62.4089 19.5,69C 16.1667,70 12.8333,71 9.5,72C 8.18586,72.985 7.18586,74.1516 6.5,75.5C 6.55975,72.6592 7.22642,69.9925 8.5,67.5C 22.8805,61.1513 37.2138,54.6513 51.5,48C 53.1341,47.5065 54.8008,47.3398 56.5,47.5 Z"/></g>
<g><path style="opacity:1" fill="#0bfef4" d="M 175.5,53.5 C 177.104,54.287 177.771,55.6203 177.5,57.5C 167.659,61.6671 157.826,66.0005 148,70.5C 147.768,69.2625 147.268,68.2625 146.5,67.5C 146.5,66.8333 146.167,66.5 145.5,66.5C 156.341,64.1086 166.341,59.7752 175.5,53.5 Z"/></g>
<g><path style="opacity:0.231" fill="#777474" d="M 7.5,56.5 C 7.323,60.7076 5.98966,64.3743 3.5,67.5C 4.06533,63.4632 5.39867,59.7966 7.5,56.5 Z"/></g>
<g><path style="opacity:1" fill="#363434" d="M 86.5,60.5 C 88.7505,60.1814 90.7505,60.6814 92.5,62C 91.1667,62.3333 89.8333,62.6667 88.5,63C 89,63.5 89.5,64 90,64.5C 88.7478,70.9126 91.2478,74.7459 97.5,76C 90.1135,75.9307 86.9468,72.0974 88,64.5C 86.9326,63.8095 85.7659,63.3095 84.5,63C 85.3805,62.2917 86.0472,61.4584 86.5,60.5 Z"/></g>
<g><path style="opacity:1" fill="#13e5fe" d="M 177.5,57.5 C 178.674,58.5137 179.34,59.847 179.5,61.5C 170.109,65.3772 160.775,69.3772 151.5,73.5C 150.18,72.0582 148.514,71.3915 146.5,71.5C 146.5,70.1667 146.5,68.8333 146.5,67.5C 147.268,68.2625 147.768,69.2625 148,70.5C 157.826,66.0005 167.659,61.6671 177.5,57.5 Z"/></g>
<g><path style="opacity:1" fill="#2f2e2e" d="M 111.5,55.5 C 114.022,55.1281 116.022,55.9614 117.5,58C 116.05,58.1171 114.55,57.9505 113,57.5C 111.596,57.5093 110.43,58.0093 109.5,59C 110.591,61.0639 110.758,63.2305 110,65.5C 108.287,66.8782 106.953,68.5448 106,70.5C 105.761,67.303 106.928,64.6363 109.5,62.5C 108.619,61.0295 107.286,60.1962 105.5,60C 107.684,58.6366 109.684,57.1366 111.5,55.5 Z"/></g>
<g><path style="opacity:1" fill="#16c3fe" d="M 179.5,61.5 C 180.345,62.6715 181.011,64.0048 181.5,65.5C 173.225,65.6449 166.225,68.6449 160.5,74.5C 156.647,75.9956 152.981,77.6623 149.5,79.5C 147.83,79.7512 146.33,80.4178 145,81.5C 144.667,79.9532 145.167,78.6199 146.5,77.5C 146.167,76.8333 145.833,76.1667 145.5,75.5C 147.631,74.8313 149.631,74.1646 151.5,73.5C 160.775,69.3772 170.109,65.3772 179.5,61.5 Z"/></g>
<g><path style="opacity:1" fill="#22fed6" d="M 172.5,47.5 C 174.008,49.1815 175.008,51.1815 175.5,53.5C 166.341,59.7752 156.341,64.1086 145.5,66.5C 144.916,71.3699 143.416,72.0365 141,68.5C 140.883,71.6287 139.383,72.7954 136.5,72C 135.449,70.6152 134.116,69.6152 132.5,69C 135.576,67.7567 138.243,65.9233 140.5,63.5C 148.336,63.0864 155.336,60.0864 161.5,54.5C 166.107,53.379 169.774,51.0456 172.5,47.5 Z"/></g>
<g><path style="opacity:1" fill="#9afe06" d="M 54.5,54.5 C 55.8734,54.3433 57.2068,54.51 58.5,55C 56.3024,58.0228 53.969,60.8562 51.5,63.5C 48.4377,63.8442 45.4377,64.5109 42.5,65.5C 40.7173,67.2316 38.7173,68.7316 36.5,70C 26.1154,73.6932 16.1154,78.1932 6.5,83.5C 5.28882,84.2739 5.28882,85.1072 6.5,86C 5.90558,86.4643 5.23891,86.631 4.5,86.5C 4.67412,84.139 5.00745,81.8056 5.5,79.5C 12.7116,76.5609 19.7116,73.0609 26.5,69C 30.5,67.6667 34.5,66.3333 38.5,65C 39.9154,62.2083 42.2487,60.7083 45.5,60.5C 48.0417,57.7349 51.0417,55.7349 54.5,54.5 Z"/></g>
<g><path style="opacity:1" fill="#252424" d="M 56.5,61.5 C 57.0431,61.56 57.3764,61.8933 57.5,62.5C 55.722,64.9446 54.3887,67.6112 53.5,70.5C 53.6082,71.4419 53.9415,72.2753 54.5,73C 52.6217,74.5429 51.1217,76.3762 50,78.5C 50.4602,72.2355 52.6269,66.5688 56.5,61.5 Z"/></g>
<g><path style="opacity:1" fill="#242323" d="M 119.5,70.5 C 127.373,70.2158 131.539,73.8825 132,81.5C 130.747,75.739 127.247,72.739 121.5,72.5C 121.055,75.3646 121.722,77.8646 123.5,80C 117.116,78.5072 116.783,80.1738 122.5,85C 128.789,86.8728 130.955,90.7061 129,96.5C 128.667,94.8333 128.333,93.1667 128,91.5C 124.855,88.2659 121.522,85.2659 118,82.5C 117.196,78.2625 117.696,74.2625 119.5,70.5 Z"/></g>
<g><path style="opacity:1" fill="#19a8fe" d="M 181.5,65.5 C 181.557,66.609 181.89,67.609 182.5,68.5C 171.631,71.887 160.964,75.887 150.5,80.5C 150.5,81.8333 150.5,83.1667 150.5,84.5C 150.5,85.1667 150.167,85.5 149.5,85.5C 149.5,83.5 149.5,81.5 149.5,79.5C 152.981,77.6623 156.647,75.9956 160.5,74.5C 166.225,68.6449 173.225,65.6449 181.5,65.5 Z"/></g>
<g><path style="opacity:1" fill="#b9fe06" d="M 52.5,52.5 C 53.5,52.8333 54.1667,53.5 54.5,54.5C 51.0417,55.7349 48.0417,57.7349 45.5,60.5C 42.2487,60.7083 39.9154,62.2083 38.5,65C 34.5,66.3333 30.5,67.6667 26.5,69C 19.7116,73.0609 12.7116,76.5609 5.5,79.5C 5.43255,78.0413 5.76589,76.7079 6.5,75.5C 7.18586,74.1516 8.18586,72.985 9.5,72C 12.8333,71 16.1667,70 19.5,69C 30.0156,62.4089 41.0156,56.9089 52.5,52.5 Z"/></g>
<g><path style="opacity:0.009" fill="#000000" d="M -0.5,80.5 C -0.166667,80.5 0.166667,80.5 0.5,80.5C 0.333531,90.1724 0.500198,99.8391 1,109.5C 3.13956,119.745 5.97289,129.745 9.5,139.5C 4.96686,130.234 1.63353,120.567 -0.5,110.5C -0.5,100.5 -0.5,90.5 -0.5,80.5 Z"/></g>
<g><path style="opacity:1" fill="#098dfe" d="M 182.5,68.5 C 182.833,69.8333 183.167,71.1667 183.5,72.5C 182.85,72.1961 182.183,71.8627 181.5,71.5C 173.273,76.6554 164.273,80.1554 154.5,82C 153.307,83.0946 151.973,83.928 150.5,84.5C 150.5,83.1667 150.5,81.8333 150.5,80.5C 160.964,75.887 171.631,71.887 182.5,68.5 Z"/></g>
<g><path style="opacity:1" fill="#656161" d="M 58.5,74.5 C 62.0562,74.2749 62.3895,75.1082 59.5,77C 59.7591,78.2613 60.4258,79.2613 61.5,80C 64.5,80.3333 67.5,80.6667 70.5,81C 72.0441,81.2896 73.3774,81.9563 74.5,83C 67.2715,83.7917 60.9382,81.7917 55.5,77C 56.5707,76.1482 57.5707,75.3149 58.5,74.5 Z"/></g>
<g><path style="opacity:1" fill="#0a6efe" d="M 183.5,72.5 C 183.833,73.8333 184.167,75.1667 184.5,76.5C 182.598,75.4891 180.598,75.3224 178.5,76C 169.695,81.9046 160.362,86.4046 150.5,89.5C 148.481,88.4617 148.147,87.1284 149.5,85.5C 150.167,85.5 150.5,85.1667 150.5,84.5C 151.973,83.928 153.307,83.0946 154.5,82C 164.273,80.1554 173.273,76.6554 181.5,71.5C 182.183,71.8627 182.85,72.1961 183.5,72.5 Z"/></g>
<g><path style="opacity:1" fill="#61fe00" d="M 51.5,63.5 C 49.7152,66.9009 48.0485,70.2342 46.5,73.5C 45.3991,72.4017 44.0657,72.235 42.5,73C 34.6066,76.9142 27.2733,81.5809 20.5,87C 15.3818,89.3932 10.0484,91.2265 4.5,92.5C 4.5,90.5 4.5,88.5 4.5,86.5C 5.23891,86.631 5.90558,86.4643 6.5,86C 5.28882,85.1072 5.28882,84.2739 6.5,83.5C 16.1154,78.1932 26.1154,73.6932 36.5,70C 38.7173,68.7316 40.7173,67.2316 42.5,65.5C 45.4377,64.5109 48.4377,63.8442 51.5,63.5 Z"/></g>
<g><path style="opacity:1" fill="#242323" d="M 139.5,82.5 C 144.028,85.9798 145.695,90.6465 144.5,96.5C 146.857,96.3367 149.19,96.5034 151.5,97C 148.135,99.1574 144.968,98.9908 142,96.5C 140.154,100.336 141.321,103.169 145.5,105C 140.16,105.989 137.66,103.822 138,98.5C 139.862,95.6062 141.028,92.4396 141.5,89C 141.518,86.5582 140.851,84.3915 139.5,82.5 Z"/></g>
<g><path style="opacity:1" fill="#747070" d="M 55.5,83.5 C 57.1765,84.1834 57.8432,85.5168 57.5,87.5C 62.0407,87.6691 62.374,87.0025 58.5,85.5C 65.5098,83.8423 66.5098,85.009 61.5,89C 59.2028,89.0178 56.8695,88.8511 54.5,88.5C 54.366,86.7085 54.6993,85.0418 55.5,83.5 Z"/></g>
<g><path style="opacity:1" fill="#1343fe" d="M 184.5,76.5 C 184.833,78.5 185.167,80.5 185.5,82.5C 183.598,81.4891 181.598,81.3224 179.5,82C 175.547,84.8099 171.213,86.8099 166.5,88C 164.907,88.9487 163.574,90.1154 162.5,91.5C 161.206,90.7101 160.039,89.7101 159,88.5C 160.19,91.2726 159.524,93.6059 157,95.5C 155.963,93.7824 155.463,91.949 155.5,90C 153.866,89.5065 152.199,89.3398 150.5,89.5C 160.362,86.4046 169.695,81.9046 178.5,76C 180.598,75.3224 182.598,75.4891 184.5,76.5 Z"/></g>
<g><path style="opacity:1" fill="#1efe0c" d="M 46.5,73.5 C 46.3146,75.1958 45.4813,76.5291 44,77.5C 44.8047,82.6825 44.3047,87.6825 42.5,92.5C 38.8733,93.2796 35.54,94.7796 32.5,97C 26.011,97.4134 20.3443,99.7467 15.5,104C 11.7665,105.08 8.0998,105.246 4.5,104.5C 4.5,100.5 4.5,96.5 4.5,92.5C 10.0484,91.2265 15.3818,89.3932 20.5,87C 27.2733,81.5809 34.6066,76.9142 42.5,73C 44.0657,72.235 45.3991,72.4017 46.5,73.5 Z"/></g>
<g><path style="opacity:1" fill="#292727" d="M 113.5,88.5 C 118.342,92.0243 120.008,96.691 118.5,102.5C 117.998,103.521 117.332,103.688 116.5,103C 117.966,99.9613 117.633,97.128 115.5,94.5C 114.058,100.464 110.391,102.964 104.5,102C 112.078,100.701 115.078,96.2009 113.5,88.5 Z"/></g>
<g><path style="opacity:1" fill="#2b2a2a" d="M 106.5,89.5 C 107.774,90.1894 107.774,91.0228 106.5,92C 107.5,92.3333 108.5,92.6667 109.5,93C 106.93,95.4593 103.93,96.4593 100.5,96C 103.386,94.6155 105.386,92.4488 106.5,89.5 Z"/></g>
<g><path style="opacity:1" fill="#2e0afe" d="M 185.5,82.5 C 185.5,84.5 185.5,86.5 185.5,88.5C 185.824,92.5546 185.491,96.5546 184.5,100.5C 182.172,101.217 180.005,102.217 178,103.5C 176.989,102.944 176.156,102.278 175.5,101.5C 174.596,97.4349 172.263,94.9349 168.5,94C 169.451,94.7175 169.617,95.5509 169,96.5C 168,94.8333 166.667,93.5 165,92.5C 165.374,94.7687 165.374,97.102 165,99.5C 164.439,96.7206 163.606,94.054 162.5,91.5C 163.574,90.1154 164.907,88.9487 166.5,88C 171.213,86.8099 175.547,84.8099 179.5,82C 181.598,81.3224 183.598,81.4891 185.5,82.5 Z"/></g>
<g><path style="opacity:1" fill="#232222" d="M 86.5,95.5 C 87.6009,94.4017 88.9343,94.235 90.5,95C 91.4856,98.9552 93.4856,102.289 96.5,105C 94.6133,105.163 93.1133,104.329 92,102.5C 91.719,105.097 91.5523,107.43 91.5,109.5C 90.0089,108.652 89.3422,107.319 89.5,105.5C 90.2675,102.846 90.4342,100.179 90,97.5C 89.1841,96.1772 88.0174,95.5106 86.5,95.5 Z"/></g>
<g><path style="opacity:1" fill="#0ffe45" d="M 42.5,92.5 C 41.2003,95.4323 39.2003,97.7656 36.5,99.5C 34.146,99.838 31.8127,100.338 29.5,101C 22.3089,106.431 14.3089,109.931 5.5,111.5C 5.32588,109.139 4.99255,106.806 4.5,104.5C 8.0998,105.246 11.7665,105.08 15.5,104C 20.3443,99.7467 26.011,97.4134 32.5,97C 35.54,94.7796 38.8733,93.2796 42.5,92.5 Z"/></g>
<g><path style="opacity:1" fill="#15fe70" d="M 36.5,99.5 C 32.8333,103.833 28.8333,107.833 24.5,111.5C 23.1266,111.343 21.7932,111.51 20.5,112C 17.2208,114.223 13.7208,116.057 10,117.5C 8.86151,117.011 7.69484,116.678 6.5,116.5C 6.63404,114.708 6.30071,113.042 5.5,111.5C 14.3089,109.931 22.3089,106.431 29.5,101C 31.8127,100.338 34.146,99.838 36.5,99.5 Z"/></g>
<g><path style="opacity:1" fill="#3b3939" d="M 172.5,101.5 C 173.799,103.153 173.466,104.653 171.5,106C 168.248,106.791 165.248,106.291 162.5,104.5C 159.896,105.269 158.062,106.936 157,109.5C 156.37,107.097 157.203,105.263 159.5,104C 162.694,103.408 165.861,103.574 169,104.5C 170.908,104.285 172.074,103.285 172.5,101.5 Z"/></g>
<g><path style="opacity:1" fill="#6a6666" d="M 81.5,104.5 C 84.3478,105.17 85.8478,106.837 86,109.5C 84.2417,107.917 82.7417,106.25 81.5,104.5 Z"/></g>
<g><path style="opacity:1" fill="#252424" d="M 130.5,107.5 C 139.705,108.598 139.705,109.432 130.5,110C 132.788,110.946 134.955,112.113 137,113.5C 137.774,115.403 137.44,117.07 136,118.5C 135.506,116.866 135.34,115.199 135.5,113.5C 133.669,112.948 132.003,112.948 130.5,113.5C 132.075,117.127 131.408,120.293 128.5,123C 127.833,123.667 127.167,123.667 126.5,123C 129.042,120.301 129.709,117.301 128.5,114C 127.5,113.667 126.5,113.333 125.5,113C 126.692,110.645 128.359,108.812 130.5,107.5 Z"/></g>
<g><path style="opacity:1" fill="#9b2ffd" d="M 185.5,88.5 C 186.717,95.7462 186.384,103.079 184.5,110.5C 182.194,110.993 179.861,111.326 177.5,111.5C 177.62,109.801 177.954,108.135 178.5,106.5C 178.201,104.185 177.368,104.185 176,106.5C 175.506,104.866 175.34,103.199 175.5,101.5C 176.156,102.278 176.989,102.944 178,103.5C 180.005,102.217 182.172,101.217 184.5,100.5C 185.491,96.5546 185.824,92.5546 185.5,88.5 Z"/></g>
<g><path style="opacity:0.501" fill="#888383" d="M 191.5,103.5 C 191.5,105.833 191.5,108.167 191.5,110.5C 190.323,114.875 188.989,119.208 187.5,123.5C 188.006,117.134 188.839,110.8 190,104.5C 190.383,103.944 190.883,103.611 191.5,103.5 Z"/></g>
<g><path style="opacity:1" fill="#161616" d="M 73.5,111.5 C 79.849,112.027 82.0157,115.361 80,121.5C 79.5291,123.246 78.8624,124.913 78,126.5C 73.1871,131.644 68.0205,136.477 62.5,141C 59.7704,143.204 56.7704,144.537 53.5,145C 58.4755,140.513 63.8089,136.513 69.5,133C 75.236,128.036 78.0693,121.87 78,114.5C 76.6439,113.62 75.1439,113.286 73.5,113.5C 73.3535,116.443 72.6868,119.276 71.5,122C 73.1579,125.176 72.1579,126.676 68.5,126.5C 68.6162,129.91 66.9496,131.244 63.5,130.5C 62.6834,134.985 60.0167,137.318 55.5,137.5C 55.762,138.978 55.4287,140.311 54.5,141.5C 54.8607,135.394 57.0274,129.728 61,124.5C 64.6972,119.638 68.8639,115.304 73.5,111.5 Z"/></g>
<g><path style="opacity:1" fill="#393737" d="M 64.5,108.5 C 65.2389,108.369 65.9056,108.536 66.5,109C 60.5228,113.989 53.8562,117.322 46.5,119C 53.0232,116.244 59.0232,112.744 64.5,108.5 Z"/></g>
<g><path style="opacity:1" fill="#171616" d="M 100.5,116.5 C 104.915,116.305 109.249,116.805 113.5,118C 111.122,118.511 108.788,119.178 106.5,120C 105.253,121.494 105.253,122.994 106.5,124.5C 109.773,123.415 113.106,123.248 116.5,124C 112.078,128.075 112.745,130.075 118.5,130C 120.487,128.681 121.654,126.848 122,124.5C 122.758,126.769 122.591,128.936 121.5,131C 117.555,131.462 114.555,133.295 112.5,136.5C 113.362,138.51 113.862,140.51 114,142.5C 111.195,139.835 109.695,136.502 109.5,132.5C 108.201,133.09 107.368,134.09 107,135.5C 106.667,137.833 106.333,140.167 106,142.5C 103.341,136.62 104.508,131.62 109.5,127.5C 105.908,126.706 103.075,128.039 101,131.5C 99.3921,134.382 98.0587,137.382 97,140.5C 96.4136,137.258 97.2469,134.425 99.5,132C 97.1893,132.155 94.856,132.155 92.5,132C 98.1041,129.614 101.437,125.447 102.5,119.5C 94.1902,122.695 93.5235,121.695 100.5,116.5 Z"/></g>
<g><path style="opacity:1" fill="#14fe9e" d="M 24.5,111.5 C 22.8333,113.5 21.1667,115.5 19.5,117.5C 15.9714,119.092 12.3047,120.426 8.5,121.5C 7.83333,119.833 7.16667,118.167 6.5,116.5C 7.69484,116.678 8.86151,117.011 10,117.5C 13.7208,116.057 17.2208,114.223 20.5,112C 21.7932,111.51 23.1266,111.343 24.5,111.5 Z"/></g>
<g><path style="opacity:1" fill="#383636" d="M 146.5,118.5 C 148.527,118.338 150.527,118.505 152.5,119C 149.455,119.914 146.455,120.581 143.5,121C 144.571,120.148 145.571,119.315 146.5,118.5 Z"/></g>
<g><path style="opacity:1" fill="#ea18fb" d="M 184.5,110.5 C 184.007,115.299 183.007,119.965 181.5,124.5C 178.843,125.494 176.176,126.494 173.5,127.5C 168.956,123.698 167.79,119.032 170,113.5C 170.21,116.234 171.044,118.734 172.5,121C 176.84,122.11 177.507,121.11 174.5,118C 174.95,115.467 175.95,113.3 177.5,111.5C 179.861,111.326 182.194,110.993 184.5,110.5 Z"/></g>
<g><path style="opacity:1" fill="#0ffec3" d="M 19.5,117.5 C 18.5155,119.598 18.8489,121.598 20.5,123.5C 17.0813,125.087 13.4146,125.753 9.5,125.5C 8.76589,124.292 8.43255,122.959 8.5,121.5C 12.3047,120.426 15.9714,119.092 19.5,117.5 Z"/></g>
<g><path style="opacity:1" fill="#5e5b5b" d="M 28.5,116.5 C 29.6341,118.966 29.8007,121.633 29,124.5C 28.6924,123.692 28.1924,123.025 27.5,122.5C 25.802,123.681 24.1353,123.681 22.5,122.5C 26.3693,122.191 28.3693,120.191 28.5,116.5 Z"/></g>
<g><path style="opacity:1" fill="#393737" d="M 162.5,112.5 C 163.239,112.369 163.906,112.536 164.5,113C 162.352,116.512 162.019,120.179 163.5,124C 161.424,125.693 159.091,126.36 156.5,126C 157.563,124.812 158.897,124.312 160.5,124.5C 160.081,120.227 160.748,116.227 162.5,112.5 Z"/></g>
<g><path style="opacity:1" fill="#11fef0" d="M 20.5,123.5 C 21.5,123.833 22.1667,124.5 22.5,125.5C 19.9038,128.476 16.5705,130.476 12.5,131.5C 11.1302,129.75 10.1302,127.75 9.5,125.5C 13.4146,125.753 17.0813,125.087 20.5,123.5 Z"/></g>
<g><path style="opacity:1" fill="#13e3fe" d="M 22.5,125.5 C 24.8263,126.145 26.493,127.478 27.5,129.5C 23.6937,132.543 19.3603,134.543 14.5,135.5C 13.3263,134.486 12.6596,133.153 12.5,131.5C 16.5705,130.476 19.9038,128.476 22.5,125.5 Z"/></g>
<g><path style="opacity:1" fill="#1e1d1d" d="M 146.5,125.5 C 152.442,125.212 152.775,126.045 147.5,128C 145.457,129.708 143.79,131.708 142.5,134C 136.077,136.626 129.41,137.959 122.5,138C 129.366,136.747 134.033,132.914 136.5,126.5C 137.103,128.452 136.77,130.452 135.5,132.5C 137.55,133.663 139.55,133.496 141.5,132C 143.054,129.713 144.721,127.546 146.5,125.5 Z"/></g>
<g><path style="opacity:0.541" fill="#565454" d="M 185.5,129.5 C 184.737,133.137 183.403,136.47 181.5,139.5C 181.49,135.525 182.823,132.191 185.5,129.5 Z"/></g>
<g><path style="opacity:1" fill="#1799fe" d="M 54.5,126.5 C 52.8333,128.5 51.1667,130.5 49.5,132.5C 49.0831,131.876 48.4164,131.543 47.5,131.5C 41.6444,135.09 35.311,137.59 28.5,139C 27.9535,139.925 27.2868,140.758 26.5,141.5C 23.873,142.058 21.5396,143.058 19.5,144.5C 17.7497,143.341 16.7497,141.674 16.5,139.5C 20.9944,137.673 25.4944,135.673 30,133.5C 31.3638,132.629 32.5305,131.629 33.5,130.5C 40.9248,129.544 47.9248,127.211 54.5,123.5C 55.087,124.233 55.087,125.233 54.5,126.5 Z"/></g>
<g><path style="opacity:1" fill="#747070" d="M 83.5,128.5 C 84.2389,128.369 84.9056,128.536 85.5,129C 82.6667,131.833 79.8333,134.667 77,137.5C 76.3333,136.833 76.3333,136.167 77,135.5C 79.3722,133.297 81.5389,130.963 83.5,128.5 Z"/></g>
<g><path style="opacity:1" fill="#176afe" d="M 49.5,132.5 C 48.5,134.5 47.5,136.5 46.5,138.5C 46.0679,139.71 45.4013,140.71 44.5,141.5C 42.7116,140.378 40.7116,140.211 38.5,141C 33.9736,142.721 29.6403,144.888 25.5,147.5C 24.5748,148.357 23.9081,149.357 23.5,150.5C 21.6736,148.853 20.3403,146.853 19.5,144.5C 21.5396,143.058 23.873,142.058 26.5,141.5C 27.2868,140.758 27.9535,139.925 28.5,139C 35.311,137.59 41.6444,135.09 47.5,131.5C 48.4164,131.543 49.0831,131.876 49.5,132.5 Z"/></g>
<g><path style="opacity:1" fill="#fe11c5" d="M 181.5,124.5 C 180.167,127.5 178.833,130.5 177.5,133.5C 173.522,134.826 169.522,136.159 165.5,137.5C 164.824,136.398 164.158,135.398 163.5,134.5C 162.71,133.206 161.71,132.039 160.5,131C 161.167,130.333 161.833,130.333 162.5,131C 163.685,132.353 165.019,133.52 166.5,134.5C 167.225,131.942 167.225,129.608 166.5,127.5C 169.093,129.988 171.427,129.988 173.5,127.5C 176.176,126.494 178.843,125.494 181.5,124.5 Z"/></g>
<g><path style="opacity:1" fill="#0ebefe" d="M 27.5,129.5 C 29.5,129.833 31.5,130.167 33.5,130.5C 32.5305,131.629 31.3638,132.629 30,133.5C 25.4944,135.673 20.9944,137.673 16.5,139.5C 14.8958,138.713 14.2291,137.38 14.5,135.5C 19.3603,134.543 23.6937,132.543 27.5,129.5 Z"/></g>
<g><path style="opacity:1" fill="#a29b9f" d="M 48.5,141.5 C 48.6716,140.508 48.3382,139.842 47.5,139.5C 47.5,138.833 47.1667,138.5 46.5,138.5C 47.5,136.5 48.5,134.5 49.5,132.5C 51.1667,130.5 52.8333,128.5 54.5,126.5C 55.3635,125.537 56.0302,125.537 56.5,126.5C 53.0061,131.159 50.3395,136.159 48.5,141.5 Z"/></g>
<g><path style="opacity:0.008" fill="#020101" d="M 41.5,176.5 C 41.5,175.833 41.1667,175.5 40.5,175.5C 40.1583,174.662 39.4916,174.328 38.5,174.5C 38.5,173.833 38.1667,173.5 37.5,173.5C 37.1583,172.662 36.4916,172.328 35.5,172.5C 25.6895,163.693 17.3561,153.693 10.5,142.5C 10.3505,141.448 10.5172,140.448 11,139.5C 19.3553,154.857 30.8553,167.357 45.5,177C 44.1807,177.195 42.8474,177.028 41.5,176.5 Z"/></g>
<g><path style="opacity:1" fill="#fe1a9a" d="M 177.5,133.5 C 176.167,136.167 174.833,138.833 173.5,141.5C 165.332,143.911 157.332,146.911 149.5,150.5C 149.336,147.813 149.503,145.146 150,142.5C 150.414,142.043 150.914,141.709 151.5,141.5C 153.487,143.501 155.82,144.335 158.5,144C 155.648,141.847 155.148,139.347 157,136.5C 160.596,140.621 162.763,139.954 163.5,134.5C 164.158,135.398 164.824,136.398 165.5,137.5C 169.522,136.159 173.522,134.826 177.5,133.5 Z"/></g>
<g><path style="opacity:0.006" fill="#000000" d="M 178.5,144.5 C 178.573,146.027 177.906,147.027 176.5,147.5C 176.427,145.973 177.094,144.973 178.5,144.5 Z"/></g>
<g><path style="opacity:1" fill="#1735fe" d="M 44.5,141.5 C 43.866,145.373 42.866,149.039 41.5,152.5C 41.7778,150.654 41.1112,149.32 39.5,148.5C 34.9982,150.418 30.3315,151.751 25.5,152.5C 24.5,152.167 23.8333,151.5 23.5,150.5C 23.9081,149.357 24.5748,148.357 25.5,147.5C 29.6403,144.888 33.9736,142.721 38.5,141C 40.7116,140.211 42.7116,140.378 44.5,141.5 Z"/></g>
<g><path style="opacity:1" fill="#625f5f" d="M 47.5,139.5 C 48.3382,139.842 48.6716,140.508 48.5,141.5C 46.7249,144.983 45.8916,148.65 46,152.5C 47.5862,150.33 48.9196,147.996 50,145.5C 49.6406,150.219 47.6406,154.219 44,157.5C 43.9421,151.289 45.1088,145.289 47.5,139.5 Z"/></g>
<g><path style="opacity:1" fill="#ff1cc0" d="M 143.5,147.5 C 143.586,148.496 143.252,149.329 142.5,150C 140.866,150.494 139.199,150.66 137.5,150.5C 132.963,149.774 131.13,147.107 132,142.5C 135.861,144.5 139.695,146.167 143.5,147.5 Z"/></g>
<g><path style="opacity:0.007" fill="#000000" d="M 174.5,150.5 C 174.573,152.027 173.906,153.027 172.5,153.5C 172.427,151.973 173.094,150.973 174.5,150.5 Z"/></g>
<g><path style="opacity:1" fill="#1e0efe" d="M 41.5,152.5 C 41.5,153.5 41.5,154.5 41.5,155.5C 40.8354,157.369 40.1687,159.369 39.5,161.5C 37.5841,162.248 35.5841,162.248 33.5,161.5C 30.1195,159.12 27.4528,156.12 25.5,152.5C 30.3315,151.751 34.9982,150.418 39.5,148.5C 41.1112,149.32 41.7778,150.654 41.5,152.5 Z"/></g>
<g><path style="opacity:1" fill="#434141" d="M 117.5,148.5 C 118.642,151.07 119.476,153.736 120,156.5C 117.977,154.231 117.144,151.564 117.5,148.5 Z"/></g>
<g><path style="opacity:1" fill="#520afe" d="M 76.5,145.5 C 72.667,150.119 67.667,152.952 61.5,154C 56.6943,156.479 52.1943,159.312 48,162.5C 46.9701,162.164 46.4701,161.497 46.5,160.5C 47.589,156.49 49.589,152.99 52.5,150C 55.6061,149.721 58.4394,149.888 61,150.5C 62.3988,149.773 63.8988,149.273 65.5,149C 69.7956,145.534 74.4623,142.701 79.5,140.5C 80.1667,140.667 80.8333,140.833 81.5,141C 80.5555,143.446 78.8888,144.946 76.5,145.5 Z"/></g>
<g><path style="opacity:1" fill="#2e2d2d" d="M 102.5,146.5 C 103.239,146.369 103.906,146.536 104.5,147C 102.077,148.571 100.744,150.737 100.5,153.5C 104.158,153.426 106.825,154.926 108.5,158C 108.333,158.5 108.167,159 108,159.5C 106.561,157.552 104.728,156.219 102.5,155.5C 99.4107,157.553 96.0774,158.72 92.5,159C 94.5873,158.208 96.4207,157.041 98,155.5C 98.7628,152.059 100.263,149.059 102.5,146.5 Z"/></g>
<g><path style="opacity:1" fill="#ff0c97" d="M 143.5,147.5 C 144.642,149.972 146.642,150.972 149.5,150.5C 143.124,154.019 136.458,157.019 129.5,159.5C 126.588,157.042 125.922,154.042 127.5,150.5C 130.962,152.391 134.628,152.891 138.5,152C 137.944,151.617 137.611,151.117 137.5,150.5C 139.199,150.66 140.866,150.494 142.5,150C 143.252,149.329 143.586,148.496 143.5,147.5 Z"/></g>
<g><path style="opacity:0.006" fill="#000000" d="M 172.5,153.5 C 171.92,155.749 170.587,157.415 168.5,158.5C 169.08,156.251 170.413,154.585 172.5,153.5 Z"/></g>
<g><path style="opacity:1" fill="#fe117a" d="M 173.5,141.5 C 172.396,143.389 171.063,145.055 169.5,146.5C 162.283,149.529 154.949,152.363 147.5,155C 144.6,155.943 142.267,157.61 140.5,160C 136.59,161.053 132.923,162.553 129.5,164.5C 127.128,164.468 124.462,164.301 121.5,164C 120.273,162.413 120.606,161.079 122.5,160C 124.81,159.503 127.143,159.337 129.5,159.5C 136.458,157.019 143.124,154.019 149.5,150.5C 157.332,146.911 165.332,143.911 173.5,141.5 Z"/></g>
<g><path style="opacity:0.006" fill="#000000" d="M 168.5,158.5 C 164.783,164.55 159.783,169.217 153.5,172.5C 158.474,167.861 163.474,163.195 168.5,158.5 Z"/></g>
<g><path style="opacity:1" fill="#ff0336" d="M 166.5,150.5 C 164.234,154.436 161.234,157.769 157.5,160.5C 153.279,160.402 149.279,161.902 145.5,165C 132.849,168.715 120.849,173.881 109.5,180.5C 108.636,182.197 107.303,183.363 105.5,184C 105.728,184.399 106.062,184.565 106.5,184.5C 103.375,185.479 100.042,185.813 96.5,185.5C 96.3691,184.624 96.7025,183.957 97.5,183.5C 103.854,181.392 109.854,178.725 115.5,175.5C 116.338,175.158 116.672,174.492 116.5,173.5C 124.165,169.715 132.165,166.548 140.5,164C 148.542,158.32 157.209,153.82 166.5,150.5 Z"/></g>
<g><path style="opacity:1" fill="#ad09fe" d="M 77.5,151.5 C 80.5224,151.981 83.5224,152.647 86.5,153.5C 85.5637,154.974 84.2303,155.974 82.5,156.5C 80.533,155.316 78.8664,155.649 77.5,157.5C 76.0432,159.785 74.0432,161.618 71.5,163C 64.7665,165.258 58.4332,168.258 52.5,172C 51.2068,172.49 49.8734,172.657 48.5,172.5C 45.4887,171.331 42.822,169.664 40.5,167.5C 43.1873,167.664 45.854,167.497 48.5,167C 57.8178,162.283 67.4845,158.45 77.5,155.5C 77.5,154.167 77.5,152.833 77.5,151.5 Z"/></g>
<g><path style="opacity:1" fill="#ff0254" d="M 169.5,146.5 C 169.262,148.404 168.262,149.738 166.5,150.5C 157.209,153.82 148.542,158.32 140.5,164C 132.165,166.548 124.165,169.715 116.5,173.5C 116.261,171.533 116.594,169.699 117.5,168C 122.111,168.963 126.111,167.797 129.5,164.5C 132.923,162.553 136.59,161.053 140.5,160C 142.267,157.61 144.6,155.943 147.5,155C 154.949,152.363 162.283,149.529 169.5,146.5 Z"/></g>
<g><path style="opacity:1" fill="#7b07fe" d="M 76.5,145.5 C 78.0418,146.301 79.7085,146.634 81.5,146.5C 81.5,147.5 81.5,148.5 81.5,149.5C 79.4727,149.338 77.4727,149.505 75.5,150C 76.0442,150.717 76.7109,151.217 77.5,151.5C 77.5,152.833 77.5,154.167 77.5,155.5C 67.4845,158.45 57.8178,162.283 48.5,167C 45.854,167.497 43.1873,167.664 40.5,167.5C 38.1415,165.471 35.8082,163.471 33.5,161.5C 35.5841,162.248 37.5841,162.248 39.5,161.5C 40.1687,159.369 40.8354,157.369 41.5,155.5C 41.2924,157.92 41.6258,160.253 42.5,162.5C 43.325,163.386 44.325,163.719 45.5,163.5C 45.2627,162.209 45.596,161.209 46.5,160.5C 46.4701,161.497 46.9701,162.164 48,162.5C 52.1943,159.312 56.6943,156.479 61.5,154C 67.667,152.952 72.667,150.119 76.5,145.5 Z"/></g>
<g><path style="opacity:1" fill="#d604fe" d="M 77.5,157.5 C 80.94,158.755 81.2733,160.755 78.5,163.5C 70.6866,169.557 61.6866,173.224 51.5,174.5C 50.2905,174.068 49.2905,173.401 48.5,172.5C 49.8734,172.657 51.2068,172.49 52.5,172C 58.4332,168.258 64.7665,165.258 71.5,163C 74.0432,161.618 76.0432,159.785 77.5,157.5 Z"/></g>
<g><path style="opacity:1" fill="#343333" d="M 104.5,164.5 C 107.722,164.108 110.722,164.608 113.5,166C 111.796,168.757 109.462,170.09 106.5,170C 108.303,169.363 109.636,168.197 110.5,166.5C 107.69,165.259 105.023,165.592 102.5,167.5C 102.167,167.333 101.833,167.167 101.5,167C 102.571,166.148 103.571,165.315 104.5,164.5 Z"/></g>
<g><path style="opacity:1" fill="#f50cfc" d="M 84.5,164.5 C 82.4009,165.428 80.7343,166.928 79.5,169C 74.596,170.785 69.9294,173.119 65.5,176C 62.8323,176.567 60.1656,177.067 57.5,177.5C 55.1815,177.008 53.1815,176.008 51.5,174.5C 61.6866,173.224 70.6866,169.557 78.5,163.5C 79.1174,163.611 79.6174,163.944 80,164.5C 82.1413,161.679 84.9746,160.346 88.5,160.5C 88.8333,163.5 87.5,164.833 84.5,164.5 Z"/></g>
<g><path style="opacity:0.006" fill="#000000" d="M 153.5,172.5 C 153.027,173.906 152.027,174.573 150.5,174.5C 150.973,173.094 151.973,172.427 153.5,172.5 Z"/></g>
<g><path style="opacity:0.007" fill="#000000" d="M 150.5,174.5 C 150.027,175.906 149.027,176.573 147.5,176.5C 147.973,175.094 148.973,174.427 150.5,174.5 Z"/></g>
<g><path style="opacity:0.005" fill="#000000" d="M 147.5,176.5 C 147.027,177.906 146.027,178.573 144.5,178.5C 144.973,177.094 145.973,176.427 147.5,176.5 Z"/></g>
<g><path style="opacity:1" fill="#ff0cd2" d="M 84.5,164.5 C 84.3893,165.117 84.056,165.617 83.5,166C 85.2205,166.739 86.8872,167.573 88.5,168.5C 87.5435,170.075 86.8769,171.742 86.5,173.5C 84.8008,173.34 83.1341,173.506 81.5,174C 77.0684,177.09 72.4018,179.59 67.5,181.5C 63.8733,180.679 60.54,179.346 57.5,177.5C 60.1656,177.067 62.8323,176.567 65.5,176C 69.9294,173.119 74.596,170.785 79.5,169C 80.7343,166.928 82.4009,165.428 84.5,164.5 Z"/></g>
<g><path style="opacity:1" fill="#ff0ba6" d="M 97.5,170.5 C 91.011,175.582 84.011,179.915 76.5,183.5C 73.3704,183.3 70.3704,182.634 67.5,181.5C 72.4018,179.59 77.0684,177.09 81.5,174C 83.1341,173.506 84.8008,173.34 86.5,173.5C 86.56,174.043 86.8933,174.376 87.5,174.5C 89.2193,171.781 91.5526,169.781 94.5,168.5C 95.5178,169.193 96.5178,169.859 97.5,170.5 Z"/></g>
<g><path style="opacity:1" fill="#ff0c7e" d="M 97.5,170.5 C 101.987,174.063 106.821,174.397 112,171.5C 112.765,171.57 113.265,171.903 113.5,172.5C 107.365,173.9 101.698,176.4 96.5,180C 91.5498,179.978 87.5498,181.811 84.5,185.5C 81.6275,185.198 78.9608,184.531 76.5,183.5C 84.011,179.915 91.011,175.582 97.5,170.5 Z"/></g>
<g><path style="opacity:1" fill="#ff061d" d="M 157.5,160.5 C 143.522,174.653 126.522,182.653 106.5,184.5C 106.062,184.565 105.728,184.399 105.5,184C 107.303,183.363 108.636,182.197 109.5,180.5C 120.849,173.881 132.849,168.715 145.5,165C 149.279,161.902 153.279,160.402 157.5,160.5 Z"/></g>
<g><path style="opacity:1" fill="#ff0153" d="M 113.5,172.5 C 114.167,173.5 114.833,174.5 115.5,175.5C 109.854,178.725 103.854,181.392 97.5,183.5C 96.7025,183.957 96.3691,184.624 96.5,185.5C 92.5,185.5 88.5,185.5 84.5,185.5C 87.5498,181.811 91.5498,179.978 96.5,180C 101.698,176.4 107.365,173.9 113.5,172.5 Z"/></g>
<g><path style="opacity:0.008" fill="#000000" d="M 134.5,183.5 C 132.208,185.267 129.542,186.267 126.5,186.5C 128.792,184.733 131.458,183.733 134.5,183.5 Z"/></g>
<g><path style="opacity:0.009" fill="#000000" d="M 58.5,184.5 C 66.1048,186.484 73.7715,188.318 81.5,190C 92.8522,190.69 104.185,190.523 115.5,189.5C 113.833,190.167 112.167,190.833 110.5,191.5C 100.5,191.5 90.5,191.5 80.5,191.5C 72.9831,189.787 65.6498,187.453 58.5,184.5 Z"/></g>
</svg>
