<?xml version="1.0" encoding="UTF-8"?>
<!DOCTYPE svg PUBLIC "-//W3C//DTD SVG 1.1//EN" "http://www.w3.org/Graphics/SVG/1.1/DTD/svg11.dtd">
<svg xmlns="http://www.w3.org/2000/svg" version="1.1" width="185px" height="70px" style="shape-rendering:geometricPrecision; text-rendering:geometricPrecision; image-rendering:optimizeQuality; fill-rule:evenodd; clip-rule:evenodd" xmlns:xlink="http://www.w3.org/1999/xlink">
<g><path style="opacity:0.964" fill="#fcf3f3" d="M 17.5,44.5 C 19.1667,44.5 20.8333,44.5 22.5,44.5C 22.6661,50.1764 22.4994,55.8431 22,61.5C 21.2421,63.9096 19.5754,64.9096 17,64.5C 15.8333,64.1667 14.6667,63.8333 13.5,63.5C 14.7662,62.2764 15.9328,60.9431 17,59.5C 17.4993,54.5111 17.6659,49.5111 17.5,44.5 Z"/></g>
<g><path style="opacity:0.964" fill="#fcf3f3" d="M 40.5,44.5 C 42.1667,44.5 43.8333,44.5 45.5,44.5C 45.6661,50.1764 45.4994,55.8431 45,61.5C 44.2421,63.9096 42.5754,64.9096 40,64.5C 38.8333,64.1667 37.6667,63.8333 36.5,63.5C 37.7662,62.2764 38.9328,60.9431 40,59.5C 40.4993,54.5111 40.6659,49.5111 40.5,44.5 Z"/></g>
<g><path style="opacity:0.943" fill="#fcf4f4" d="M 72.5,44.5 C 76.1817,44.3347 79.8484,44.5014 83.5,45C 85.6483,47.0749 85.9817,49.4082 84.5,52C 87.1667,54.6667 87.1667,57.3333 84.5,60C 80.5138,60.4988 76.5138,60.6655 72.5,60.5C 72.5,55.1667 72.5,49.8333 72.5,44.5 Z M 77.5,46.5 C 81.1468,47.8725 81.3135,49.5392 78,51.5C 77.5065,49.8659 77.3398,48.1992 77.5,46.5 Z M 77.5,53.5 C 82.4277,54.8915 82.5944,56.5582 78,58.5C 77.5065,56.8659 77.3398,55.1992 77.5,53.5 Z"/></g>
<g><path style="opacity:0.816" fill="#fcf4f4" d="M 26.5,48.5 C 29.5184,48.3354 32.5184,48.502 35.5,49C 39.5,52.6667 39.5,56.3333 35.5,60C 24.5699,61.9231 21.5699,58.0897 26.5,48.5 Z M 29.5,51.5 C 34.8333,53.5 34.8333,55.5 29.5,57.5C 29.5,55.5 29.5,53.5 29.5,51.5 Z"/></g>
<g><path style="opacity:0.816" fill="#fcf4f4" d="M 49.5,48.5 C 52.5184,48.3354 55.5184,48.502 58.5,49C 62.5,52.6667 62.5,56.3333 58.5,60C 47.5699,61.9231 44.5699,58.0897 49.5,48.5 Z M 52.5,51.5 C 57.8333,53.5 57.8333,55.5 52.5,57.5C 52.5,55.5 52.5,53.5 52.5,51.5 Z"/></g>
<g><path style="opacity:0.932" fill="#fcf3f3" d="M 88.5,48.5 C 91.8984,48.1796 95.2317,48.513 98.5,49.5C 97.086,50.624 95.586,51.624 94,52.5C 93.5026,55.146 93.3359,57.8127 93.5,60.5C 91.8333,60.5 90.1667,60.5 88.5,60.5C 88.5,56.5 88.5,52.5 88.5,48.5 Z"/></g>
<g><path style="opacity:0.816" fill="#fcf4f4" d="M 101.5,48.5 C 104.518,48.3354 107.518,48.502 110.5,49C 114.5,52.6667 114.5,56.3333 110.5,60C 99.5699,61.9231 96.5699,58.0897 101.5,48.5 Z M 104.5,51.5 C 109.833,53.5 109.833,55.5 104.5,57.5C 104.5,55.5 104.5,53.5 104.5,51.5 Z"/></g>
<g><path style="opacity:0.862" fill="#fcf4f4" d="M 113.5,49.5 C 117.823,47.8067 119.989,49.4734 120,54.5C 120.346,52.7818 120.846,51.1151 121.5,49.5C 125.316,47.7971 127.15,49.1305 127,53.5C 128.009,51.9751 128.509,50.3084 128.5,48.5C 130.288,48.2148 131.955,48.5481 133.5,49.5C 132.512,52.4501 131.679,55.4501 131,58.5C 129.246,60.25 127.079,60.9167 124.5,60.5C 124.281,55.3706 123.614,55.3706 122.5,60.5C 120.5,60.5 118.5,60.5 116.5,60.5C 115.945,56.6032 114.945,52.9365 113.5,49.5 Z"/></g>
<g><path style="opacity:0.832" fill="#fcf4f4" d="M 146.5,55.5 C 146.249,57.1703 145.582,58.6703 144.5,60C 141.183,60.4983 137.85,60.665 134.5,60.5C 134.5,59.5 134.5,58.5 134.5,57.5C 136.857,57.6633 139.19,57.4966 141.5,57C 135.386,57.2718 133.386,54.6052 135.5,49C 138.817,48.5017 142.15,48.335 145.5,48.5C 145.5,49.5 145.5,50.5 145.5,51.5C 143.143,51.3367 140.81,51.5034 138.5,52C 141.792,52.0036 144.458,53.1703 146.5,55.5 Z"/></g>
<g><path style="opacity:0.836" fill="#fcf4f4" d="M 146.5,55.5 C 146.621,50.5438 149.121,48.2105 154,48.5C 159.088,48.0888 161.255,50.4221 160.5,55.5C 149.833,56.1667 149.833,56.8333 160.5,57.5C 160.5,58.5 160.5,59.5 160.5,60.5C 156.818,60.6653 153.152,60.4986 149.5,60C 148.219,58.5913 147.219,57.0913 146.5,55.5 Z M 152.5,51.5 C 153.675,51.281 154.675,51.6143 155.5,52.5C 153.948,53.7979 152.948,53.4646 152.5,51.5 Z"/></g>
<g><path style="opacity:0.932" fill="#fcf3f3" d="M 162.5,48.5 C 165.898,48.1796 169.232,48.513 172.5,49.5C 171.086,50.624 169.586,51.624 168,52.5C 167.503,55.146 167.336,57.8127 167.5,60.5C 165.833,60.5 164.167,60.5 162.5,60.5C 162.5,56.5 162.5,52.5 162.5,48.5 Z"/></g>
<g><path style="opacity:0.965" fill="#fcf4f3" d="M 62.5,52.5 C 64.8333,52.5 67.1667,52.5 69.5,52.5C 69.5,53.5 69.5,54.5 69.5,55.5C 67.1667,55.5 64.8333,55.5 62.5,55.5C 62.5,54.5 62.5,53.5 62.5,52.5 Z"/></g>
</svg>
