<?xml version="1.0" encoding="UTF-8" standalone="no"?>
<!DOCTYPE svg PUBLIC "-//W3C//DTD SVG 1.1//EN" "http://www.w3.org/Graphics/SVG/1.1/DTD/svg11.dtd">
<!-- Generated by graphviz version 7.1.0 (0)
 -->
<!-- Pages: 1 -->
<svg width="337pt" height="332pt"
  viewBox="0.00 0.00 336.94 332.00" xmlns="http://www.w3.org/2000/svg"
  xmlns:xlink="http://www.w3.org/1999/xlink">
  <g id="graph0" class="graph" transform="scale(1 1) rotate(0) translate(4 328)">
    <polygon fill="white" stroke="none" points="-4,4 -4,-328 332.94,-328 332.94,4 -4,4" />
    <!-- SOURCE -->
    <g id="node1" class="node">
      <title>SOURCE</title>
      <ellipse fill="none" stroke="black" cx="121.95" cy="-306" rx="45.49" ry="18" />
      <text text-anchor="middle" x="121.95" y="-302.3" font-family="Times,serif" font-size="14.00">
        SOURCE</text>
    </g>
    <!-- (BUILD) -->
    <g id="node2" class="node">
      <title>(BUILD)</title>
      <ellipse fill="none" stroke="black" cx="121.95" cy="-234" rx="43.59" ry="18" />
      <text text-anchor="middle" x="121.95" y="-230.3" font-family="Times,serif" font-size="14.00">
        (BUILD)</text>
    </g>
    <!-- SOURCE&#45;&gt;(BUILD) -->
    <g id="edge1" class="edge">
      <title>SOURCE&#45;&gt;(BUILD)</title>
      <path fill="none" stroke="black"
        d="M121.95,-287.7C121.95,-280.41 121.95,-271.73 121.95,-263.54" />
      <polygon fill="black" stroke="black"
        points="125.45,-263.62 121.95,-253.62 118.45,-263.62 125.45,-263.62" />
    </g>
    <!-- PACKAGE -->
    <g id="node3" class="node">
      <title>PACKAGE</title>
      <ellipse fill="none" stroke="black" cx="121.95" cy="-162" rx="51.99" ry="18" />
      <text text-anchor="middle" x="121.95" y="-158.3" font-family="Times,serif" font-size="14.00">
        PACKAGE</text>
    </g>
    <!-- (BUILD)&#45;&gt;PACKAGE -->
    <g id="edge2" class="edge">
      <title>(BUILD)&#45;&gt;PACKAGE</title>
      <path fill="none" stroke="black"
        d="M121.95,-215.7C121.95,-208.41 121.95,-199.73 121.95,-191.54" />
      <polygon fill="black" stroke="black"
        points="125.45,-191.62 121.95,-181.62 118.45,-191.62 125.45,-191.62" />
    </g>
    <!-- SETUP -->
    <g id="node4" class="node">
      <title>SETUP</title>
      <ellipse fill="none" stroke="black" cx="40.95" cy="-90" rx="29.8" ry="18" />
      <text text-anchor="middle" x="40.95" y="-86.3" font-family="Times,serif" font-size="14.00">
        SETUP</text>
    </g>
    <!-- PACKAGE&#45;&gt;SETUP -->
    <g id="edge3" class="edge">
      <title>PACKAGE&#45;&gt;SETUP</title>
      <path fill="none" stroke="black" d="M103.16,-144.76C92.14,-135.24 78.07,-123.08 66.09,-112.73" />
      <polygon fill="black" stroke="black"
        points="68.44,-110.13 58.58,-106.24 63.86,-115.43 68.44,-110.13" />
    </g>
    <!-- MSIX -->
    <g id="node5" class="node">
      <title>MSIX</title>
      <ellipse fill="none" stroke="black" cx="121.95" cy="-90" rx="33.29" ry="18" />
      <text text-anchor="middle" x="121.95" y="-86.3" font-family="Times,serif" font-size="14.00">
        MSIX</text>
    </g>
    <!-- PACKAGE&#45;&gt;MSIX -->
    <g id="edge4" class="edge">
      <title>PACKAGE&#45;&gt;MSIX</title>
      <path fill="none" stroke="black"
        d="M121.95,-143.7C121.95,-136.41 121.95,-127.73 121.95,-119.54" />
      <polygon fill="black" stroke="black"
        points="125.45,-119.62 121.95,-109.62 118.45,-119.62 125.45,-119.62" />
    </g>
    <!-- WIN_PORTABLE -->
    <g id="node6" class="node">
      <title>WIN_PORTABLE</title>
      <ellipse fill="none" stroke="black" cx="250.95" cy="-90" rx="77.99" ry="18" />
      <text text-anchor="middle" x="250.95" y="-86.3" font-family="Times,serif" font-size="14.00">
        WIN_PORTABLE</text>
    </g>
    <!-- PACKAGE&#45;&gt;WIN_PORTABLE -->
    <g id="edge5" class="edge">
      <title>PACKAGE&#45;&gt;WIN_PORTABLE</title>
      <path fill="none" stroke="black"
        d="M148.99,-146.33C167.06,-136.52 191.15,-123.45 211.37,-112.48" />
      <polygon fill="black" stroke="black"
        points="212.79,-115.69 219.91,-107.84 209.45,-109.54 212.79,-115.69" />
    </g>
    <!-- NUPKG -->
    <g id="node7" class="node">
      <title>NUPKG</title>
      <ellipse fill="none" stroke="black" cx="40.95" cy="-18" rx="40.89" ry="18" />
      <text text-anchor="middle" x="40.95" y="-14.3" font-family="Times,serif" font-size="14.00">
        NUPKG</text>
    </g>
    <!-- SETUP&#45;&gt;NUPKG -->
    <g id="edge6" class="edge">
      <title>SETUP&#45;&gt;NUPKG</title>
      <path fill="none" stroke="black" d="M40.95,-71.7C40.95,-64.41 40.95,-55.73 40.95,-47.54" />
      <polygon fill="black" stroke="black"
        points="44.45,-47.62 40.95,-37.62 37.45,-47.62 44.45,-47.62" />
    </g>
  </g>
</svg>